<?xml version="1.0" encoding="utf-8"?>
<!-- Generator: Adobe Illustrator 24.1.2, SVG Export Plug-In . SVG Version: 6.00 Build 0)  -->
<svg version="1.1" xmlns="http://www.w3.org/2000/svg" xmlns:xlink="http://www.w3.org/1999/xlink" x="0px" y="0px"
	 viewBox="0 0 256 256" style="enable-background:new 0 0 256 256;" xml:space="preserve">
<style type="text/css">
	.st0{fill:#FFFFFF;}
</style>
<g id="Слой_1">
	<path class="st0" d="M128,0C57.31,0,0,57.31,0,128s57.31,128,128,128s128-57.31,128-128S198.69,0,128,0z M89.5,71.6
		c0-21.26,17.24-38.5,38.5-38.5c21.26,0,38.5,17.24,38.5,38.5v26.42c0,21.26-17.24,38.5-38.5,38.5c-21.26,0-38.5-17.24-38.5-38.5
		V71.6z M181.36,150.11c-11.23,11.6-25.43,19.07-40.86,21.7v22.67h8.96c6.9,0,12.5,5.6,12.5,12.5s-5.6,12.5-12.5,12.5h-42.92
		c-6.9,0-12.5-5.6-12.5-12.5s5.6-12.5,12.5-12.5h8.96v-22.67c-15.36-2.62-29.51-10.04-40.73-21.57
		c-14.29-14.69-21.82-33.94-21.22-54.23c0.21-6.9,5.97-12.32,12.87-12.12c6.9,0.21,12.33,5.97,12.12,12.87
		c-0.4,13.45,4.62,26.26,14.15,36.05c9.46,9.73,22,15.08,35.31,15.08c0.04,0,0.08,0,0.12,0c13.31-0.03,25.84-5.42,35.28-15.16
		c9.47-9.78,14.46-22.55,14.06-35.96c-0.21-6.9,5.22-12.66,12.12-12.87c6.91-0.21,12.66,5.22,12.87,12.12
		C203.06,116.23,195.57,135.44,181.36,150.11z"/>
</g>
<g id="Слой_2">
</g>
</svg>
