<?xml version="1.0" encoding="utf-8"?>
<!-- Generator: Adobe Illustrator 24.1.2, SVG Export Plug-In . SVG Version: 6.00 Build 0)  -->
<svg version="1.1" xmlns="http://www.w3.org/2000/svg" xmlns:xlink="http://www.w3.org/1999/xlink" x="0px" y="0px"
	 viewBox="0 0 256 256" style="enable-background:new 0 0 256 256;" xml:space="preserve">
<style type="text/css">
	.st0{display:none;}
	.st1{display:inline;fill:#725A5E;}
	.st2{display:none;opacity:0.5;fill:#7A7A7A;}
	.st3{fill:#B27781;}
	.st4{fill:none;stroke:#FFFFFF;stroke-width:40;stroke-linecap:round;stroke-miterlimit:10;}
</style>
<g id="Слой_1" class="st0">
	<path class="st1" d="M128,0C57.308,0,0,57.308,0,128s57.308,128,128,128s128-57.308,128-128S198.692,0,128,0z M89.5,71.597
		c0-21.263,17.237-38.5,38.5-38.5c21.263,0,38.5,17.237,38.5,38.5v26.419c0,21.263-17.237,38.5-38.5,38.5
		c-21.263,0-38.5-17.237-38.5-38.5V71.597z M181.36,150.11c-11.234,11.602-25.434,19.069-40.86,21.699v22.666h8.959
		c6.903,0,12.5,5.597,12.5,12.5s-5.597,12.5-12.5,12.5h-42.918c-6.903,0-12.5-5.597-12.5-12.5s5.597-12.5,12.5-12.5h8.959v-22.667
		c-15.361-2.619-29.51-10.036-40.733-21.573C60.478,135.55,52.942,116.292,53.548,96.01c0.207-6.901,5.971-12.319,12.868-12.122
		c6.9,0.206,12.328,5.967,12.122,12.868c-0.402,13.455,4.623,26.256,14.148,36.047c9.464,9.728,22.002,15.08,35.315,15.08
		c0.04,0,0.079,0,0.119,0c13.314-0.032,25.844-5.417,35.28-15.163c9.47-9.78,14.464-22.552,14.063-35.963
		c-0.206-6.9,5.221-12.662,12.121-12.868c6.907-0.209,12.661,5.221,12.867,12.121C203.056,116.226,195.565,135.438,181.36,150.11z"
		/>
</g>
<g id="Слой_2">
	<path class="st2" d="M235.543,103.143L59.356,7.523C38.218-2.002,16.01,8.137,6.809,25.965C29.176,53.934,42.559,89.402,42.559,128
		c0,38.588-13.376,74.047-35.733,102.013c9.197,17.845,31.421,27.996,52.57,18.459l176.154-95.684
		C256.934,143.145,256.929,112.779,235.543,103.143z"/>
	<path class="st3" d="M192.596,256H63.404C28.387,256,0,227.613,0,192.596V63.404C0,28.387,28.387,0,63.404,0h129.191
		C227.613,0,256,28.387,256,63.404v129.191C256,227.613,227.613,256,192.596,256z"/>
	<line class="st4" x1="202.957" y1="53.043" x2="53.043" y2="202.957"/>
	<line class="st4" x1="202.957" y1="202.957" x2="53.043" y2="53.043"/>
</g>
</svg>
